<svg width="155" height="44" viewBox="0 0 155 44" fill="none" xmlns="http://www.w3.org/2000/svg">
<path d="M3.89714 9H15.4314C15.6829 9 15.9029 9.09428 16.0914 9.28285C16.28 9.45047 16.3743 9.67047 16.3743 9.94286C16.3743 10.2152 16.28 10.4352 16.0914 10.6029C15.9029 10.7705 15.6829 10.8543 15.4314 10.8543H4.62L4.93429 10.32V19.1514L4.58857 18.7429H14.0171C14.2686 18.7429 14.4886 18.8371 14.6771 19.0257C14.8657 19.2143 14.96 19.4343 14.96 19.6857C14.96 19.9581 14.8657 20.1781 14.6771 20.3457C14.4886 20.5133 14.2686 20.5971 14.0171 20.5971H4.65143L4.93429 20.2829V29.3343L4.77714 29.1457H15.4314C15.6829 29.1457 15.9029 29.24 16.0914 29.4286C16.28 29.6171 16.3743 29.8371 16.3743 30.0886C16.3743 30.361 16.28 30.581 16.0914 30.7486C15.9029 30.9162 15.6829 31 15.4314 31H3.89714C3.64571 31 3.42571 30.9057 3.23714 30.7171C3.04857 30.5286 2.95429 30.3086 2.95429 30.0571V9.94286C2.95429 9.69143 3.04857 9.47143 3.23714 9.28285C3.42571 9.09428 3.64571 9 3.89714 9ZM32.9799 29.1457C33.2313 29.1457 33.4513 29.24 33.6399 29.4286C33.8284 29.5962 33.9227 29.8057 33.9227 30.0571C33.9227 30.3295 33.8284 30.56 33.6399 30.7486C33.4513 30.9162 33.2313 31 32.9799 31H21.7599C21.4875 31 21.257 30.9057 21.0684 30.7171C20.9008 30.5286 20.817 30.3086 20.817 30.0571V9.94286C20.817 9.69143 20.9113 9.47143 21.0999 9.28285C21.2884 9.09428 21.5294 9 21.8227 9C22.0742 9 22.2942 9.09428 22.4827 9.28285C22.6922 9.47143 22.797 9.69143 22.797 9.94286V29.68L22.1999 29.1457H32.9799ZM38.487 9H50.0213C50.2727 9 50.4927 9.09428 50.6813 9.28285C50.8698 9.45047 50.9641 9.67047 50.9641 9.94286C50.9641 10.2152 50.8698 10.4352 50.6813 10.6029C50.4927 10.7705 50.2727 10.8543 50.0213 10.8543H39.2098L39.5241 10.32V19.1514L39.1784 18.7429H48.607C48.8584 18.7429 49.0784 18.8371 49.267 19.0257C49.4556 19.2143 49.5498 19.4343 49.5498 19.6857C49.5498 19.9581 49.4556 20.1781 49.267 20.3457C49.0784 20.5133 48.8584 20.5971 48.607 20.5971H39.2413L39.5241 20.2829V29.3343L39.367 29.1457H50.0213C50.2727 29.1457 50.4927 29.24 50.6813 29.4286C50.8698 29.6171 50.9641 29.8371 50.9641 30.0886C50.9641 30.361 50.8698 30.581 50.6813 30.7486C50.4927 30.9162 50.2727 31 50.0213 31H38.487C38.2356 31 38.0156 30.9057 37.827 30.7171C37.6384 30.5286 37.5441 30.3086 37.5441 30.0571V9.94286C37.5441 9.69143 37.6384 9.47143 37.827 9.28285C38.0156 9.09428 38.2356 9 38.487 9ZM71.3097 8.96857C71.603 8.96857 71.8335 9.05238 72.0011 9.22C72.1897 9.38762 72.284 9.59714 72.284 9.84857C72.284 9.99524 72.2526 10.1524 72.1897 10.32L63.7983 30.3714C63.6935 30.581 63.5573 30.7381 63.3897 30.8429C63.2221 30.9476 63.0545 31 62.8869 31C62.6983 31 62.5202 30.9476 62.3526 30.8429C62.185 30.7381 62.0697 30.5914 62.0069 30.4029L53.6469 10.3829C53.6259 10.32 53.6049 10.2467 53.584 10.1629C53.563 10.079 53.5526 9.98476 53.5526 9.88C53.5526 9.60762 53.6469 9.38762 53.8354 9.22C54.0449 9.05238 54.2545 8.96857 54.464 8.96857C54.904 8.96857 55.2183 9.19905 55.4069 9.66L63.264 28.4543H62.6983L70.4297 9.59714C70.6392 9.17809 70.9326 8.96857 71.3097 8.96857ZM82.5882 11.42L74.951 30.4029C74.8672 30.6124 74.752 30.7695 74.6053 30.8743C74.4586 30.979 74.291 31.0314 74.1024 31.0314C73.8091 31.0314 73.5891 30.9581 73.4424 30.8114C73.2958 30.6438 73.212 30.4448 73.191 30.2143C73.1701 30.1095 73.1805 29.9838 73.2224 29.8371L81.5196 9.53428C81.6243 9.30381 81.7501 9.14666 81.8967 9.06286C82.0643 8.95809 82.2529 8.90571 82.4624 8.90571C82.672 8.90571 82.8501 8.96857 82.9967 9.09428C83.1643 9.19905 83.2901 9.34571 83.3739 9.53428L91.6396 29.7429C91.6815 29.8686 91.7024 29.9943 91.7024 30.12C91.7024 30.4133 91.6082 30.6438 91.4196 30.8114C91.231 30.9581 91.011 31.0314 90.7596 31.0314C90.5501 31.0314 90.3615 30.979 90.1939 30.8743C90.0472 30.7486 89.932 30.5914 89.8482 30.4029L82.0224 11.2943L82.5882 11.42ZM76.7739 24.6514L77.5596 22.7971H87.3024L87.6796 24.6514H76.7739ZM100.554 31C100.261 31 100.02 30.9057 99.8316 30.7171C99.664 30.5286 99.5802 30.3086 99.5802 30.0571V10.0371H101.529V30.0571C101.529 30.3086 101.434 30.5286 101.246 30.7171C101.057 30.9057 100.827 31 100.554 31ZM93.0745 10.7914C92.8231 10.7914 92.6031 10.7076 92.4145 10.54C92.2259 10.3724 92.1316 10.1524 92.1316 9.88C92.1316 9.62857 92.2259 9.41905 92.4145 9.25143C92.6031 9.08381 92.8231 9 93.0745 9H108.034C108.286 9 108.506 9.08381 108.694 9.25143C108.883 9.41905 108.977 9.63905 108.977 9.91143C108.977 10.1838 108.883 10.4038 108.694 10.5714C108.506 10.7181 108.286 10.7914 108.034 10.7914H93.0745ZM113.928 9H125.462C125.714 9 125.934 9.09428 126.122 9.28285C126.311 9.45047 126.405 9.67047 126.405 9.94286C126.405 10.2152 126.311 10.4352 126.122 10.6029C125.934 10.7705 125.714 10.8543 125.462 10.8543H114.651L114.965 10.32V19.1514L114.619 18.7429H124.048C124.299 18.7429 124.519 18.8371 124.708 19.0257C124.896 19.2143 124.991 19.4343 124.991 19.6857C124.991 19.9581 124.896 20.1781 124.708 20.3457C124.519 20.5133 124.299 20.5971 124.048 20.5971H114.682L114.965 20.2829V29.3343L114.808 29.1457H125.462C125.714 29.1457 125.934 29.24 126.122 29.4286C126.311 29.6171 126.405 29.8371 126.405 30.0886C126.405 30.361 126.311 30.581 126.122 30.7486C125.934 30.9162 125.714 31 125.462 31H113.928C113.676 31 113.456 30.9057 113.268 30.7171C113.079 30.5286 112.985 30.3086 112.985 30.0571V9.94286C112.985 9.69143 113.079 9.47143 113.268 9.28285C113.456 9.09428 113.676 9 113.928 9Z" fill="black"/>
<path d="M3.89714 9H15.4314C15.6829 9 15.9029 9.09428 16.0914 9.28285C16.28 9.45047 16.3743 9.67047 16.3743 9.94286C16.3743 10.2152 16.28 10.4352 16.0914 10.6029C15.9029 10.7705 15.6829 10.8543 15.4314 10.8543H4.62L4.93429 10.32V19.1514L4.58857 18.7429H14.0171C14.2686 18.7429 14.4886 18.8371 14.6771 19.0257C14.8657 19.2143 14.96 19.4343 14.96 19.6857C14.96 19.9581 14.8657 20.1781 14.6771 20.3457C14.4886 20.5133 14.2686 20.5971 14.0171 20.5971H4.65143L4.93429 20.2829V29.3343L4.77714 29.1457H15.4314C15.6829 29.1457 15.9029 29.24 16.0914 29.4286C16.28 29.6171 16.3743 29.8371 16.3743 30.0886C16.3743 30.361 16.28 30.581 16.0914 30.7486C15.9029 30.9162 15.6829 31 15.4314 31H3.89714C3.64571 31 3.42571 30.9057 3.23714 30.7171C3.04857 30.5286 2.95429 30.3086 2.95429 30.0571V9.94286C2.95429 9.69143 3.04857 9.47143 3.23714 9.28285C3.42571 9.09428 3.64571 9 3.89714 9ZM32.9799 29.1457C33.2313 29.1457 33.4513 29.24 33.6399 29.4286C33.8284 29.5962 33.9227 29.8057 33.9227 30.0571C33.9227 30.3295 33.8284 30.56 33.6399 30.7486C33.4513 30.9162 33.2313 31 32.9799 31H21.7599C21.4875 31 21.257 30.9057 21.0684 30.7171C20.9008 30.5286 20.817 30.3086 20.817 30.0571V9.94286C20.817 9.69143 20.9113 9.47143 21.0999 9.28285C21.2884 9.09428 21.5294 9 21.8227 9C22.0742 9 22.2942 9.09428 22.4827 9.28285C22.6922 9.47143 22.797 9.69143 22.797 9.94286V29.68L22.1999 29.1457H32.9799ZM38.487 9H50.0213C50.2727 9 50.4927 9.09428 50.6813 9.28285C50.8698 9.45047 50.9641 9.67047 50.9641 9.94286C50.9641 10.2152 50.8698 10.4352 50.6813 10.6029C50.4927 10.7705 50.2727 10.8543 50.0213 10.8543H39.2098L39.5241 10.32V19.1514L39.1784 18.7429H48.607C48.8584 18.7429 49.0784 18.8371 49.267 19.0257C49.4556 19.2143 49.5498 19.4343 49.5498 19.6857C49.5498 19.9581 49.4556 20.1781 49.267 20.3457C49.0784 20.5133 48.8584 20.5971 48.607 20.5971H39.2413L39.5241 20.2829V29.3343L39.367 29.1457H50.0213C50.2727 29.1457 50.4927 29.24 50.6813 29.4286C50.8698 29.6171 50.9641 29.8371 50.9641 30.0886C50.9641 30.361 50.8698 30.581 50.6813 30.7486C50.4927 30.9162 50.2727 31 50.0213 31H38.487C38.2356 31 38.0156 30.9057 37.827 30.7171C37.6384 30.5286 37.5441 30.3086 37.5441 30.0571V9.94286C37.5441 9.69143 37.6384 9.47143 37.827 9.28285C38.0156 9.09428 38.2356 9 38.487 9ZM71.3097 8.96857C71.603 8.96857 71.8335 9.05238 72.0011 9.22C72.1897 9.38762 72.284 9.59714 72.284 9.84857C72.284 9.99524 72.2526 10.1524 72.1897 10.32L63.7983 30.3714C63.6935 30.581 63.5573 30.7381 63.3897 30.8429C63.2221 30.9476 63.0545 31 62.8869 31C62.6983 31 62.5202 30.9476 62.3526 30.8429C62.185 30.7381 62.0697 30.5914 62.0069 30.4029L53.6469 10.3829C53.6259 10.32 53.6049 10.2467 53.584 10.1629C53.563 10.079 53.5526 9.98476 53.5526 9.88C53.5526 9.60762 53.6469 9.38762 53.8354 9.22C54.0449 9.05238 54.2545 8.96857 54.464 8.96857C54.904 8.96857 55.2183 9.19905 55.4069 9.66L63.264 28.4543H62.6983L70.4297 9.59714C70.6392 9.17809 70.9326 8.96857 71.3097 8.96857ZM82.5882 11.42L74.951 30.4029C74.8672 30.6124 74.752 30.7695 74.6053 30.8743C74.4586 30.979 74.291 31.0314 74.1024 31.0314C73.8091 31.0314 73.5891 30.9581 73.4424 30.8114C73.2958 30.6438 73.212 30.4448 73.191 30.2143C73.1701 30.1095 73.1805 29.9838 73.2224 29.8371L81.5196 9.53428C81.6243 9.30381 81.7501 9.14666 81.8967 9.06286C82.0643 8.95809 82.2529 8.90571 82.4624 8.90571C82.672 8.90571 82.8501 8.96857 82.9967 9.09428C83.1643 9.19905 83.2901 9.34571 83.3739 9.53428L91.6396 29.7429C91.6815 29.8686 91.7024 29.9943 91.7024 30.12C91.7024 30.4133 91.6082 30.6438 91.4196 30.8114C91.231 30.9581 91.011 31.0314 90.7596 31.0314C90.5501 31.0314 90.3615 30.979 90.1939 30.8743C90.0472 30.7486 89.932 30.5914 89.8482 30.4029L82.0224 11.2943L82.5882 11.42ZM76.7739 24.6514L77.5596 22.7971H87.3024L87.6796 24.6514H76.7739ZM100.554 31C100.261 31 100.02 30.9057 99.8316 30.7171C99.664 30.5286 99.5802 30.3086 99.5802 30.0571V10.0371H101.529V30.0571C101.529 30.3086 101.434 30.5286 101.246 30.7171C101.057 30.9057 100.827 31 100.554 31ZM93.0745 10.7914C92.8231 10.7914 92.6031 10.7076 92.4145 10.54C92.2259 10.3724 92.1316 10.1524 92.1316 9.88C92.1316 9.62857 92.2259 9.41905 92.4145 9.25143C92.6031 9.08381 92.8231 9 93.0745 9H108.034C108.286 9 108.506 9.08381 108.694 9.25143C108.883 9.41905 108.977 9.63905 108.977 9.91143C108.977 10.1838 108.883 10.4038 108.694 10.5714C108.506 10.7181 108.286 10.7914 108.034 10.7914H93.0745ZM113.928 9H125.462C125.714 9 125.934 9.09428 126.122 9.28285C126.311 9.45047 126.405 9.67047 126.405 9.94286C126.405 10.2152 126.311 10.4352 126.122 10.6029C125.934 10.7705 125.714 10.8543 125.462 10.8543H114.651L114.965 10.32V19.1514L114.619 18.7429H124.048C124.299 18.7429 124.519 18.8371 124.708 19.0257C124.896 19.2143 124.991 19.4343 124.991 19.6857C124.991 19.9581 124.896 20.1781 124.708 20.3457C124.519 20.5133 124.299 20.5971 124.048 20.5971H114.682L114.965 20.2829V29.3343L114.808 29.1457H125.462C125.714 29.1457 125.934 29.24 126.122 29.4286C126.311 29.6171 126.405 29.8371 126.405 30.0886C126.405 30.361 126.311 30.581 126.122 30.7486C125.934 30.9162 125.714 31 125.462 31H113.928C113.676 31 113.456 30.9057 113.268 30.7171C113.079 30.5286 112.985 30.3086 112.985 30.0571V9.94286C112.985 9.69143 113.079 9.47143 113.268 9.28285C113.456 9.09428 113.676 9 113.928 9Z" fill="black"/>
<path d="M3.89714 9H15.4314C15.6829 9 15.9029 9.09428 16.0914 9.28285C16.28 9.45047 16.3743 9.67047 16.3743 9.94286C16.3743 10.2152 16.28 10.4352 16.0914 10.6029C15.9029 10.7705 15.6829 10.8543 15.4314 10.8543H4.62L4.93429 10.32V19.1514L4.58857 18.7429H14.0171C14.2686 18.7429 14.4886 18.8371 14.6771 19.0257C14.8657 19.2143 14.96 19.4343 14.96 19.6857C14.96 19.9581 14.8657 20.1781 14.6771 20.3457C14.4886 20.5133 14.2686 20.5971 14.0171 20.5971H4.65143L4.93429 20.2829V29.3343L4.77714 29.1457H15.4314C15.6829 29.1457 15.9029 29.24 16.0914 29.4286C16.28 29.6171 16.3743 29.8371 16.3743 30.0886C16.3743 30.361 16.28 30.581 16.0914 30.7486C15.9029 30.9162 15.6829 31 15.4314 31H3.89714C3.64571 31 3.42571 30.9057 3.23714 30.7171C3.04857 30.5286 2.95429 30.3086 2.95429 30.0571V9.94286C2.95429 9.69143 3.04857 9.47143 3.23714 9.28285C3.42571 9.09428 3.64571 9 3.89714 9ZM32.9799 29.1457C33.2313 29.1457 33.4513 29.24 33.6399 29.4286C33.8284 29.5962 33.9227 29.8057 33.9227 30.0571C33.9227 30.3295 33.8284 30.56 33.6399 30.7486C33.4513 30.9162 33.2313 31 32.9799 31H21.7599C21.4875 31 21.257 30.9057 21.0684 30.7171C20.9008 30.5286 20.817 30.3086 20.817 30.0571V9.94286C20.817 9.69143 20.9113 9.47143 21.0999 9.28285C21.2884 9.09428 21.5294 9 21.8227 9C22.0742 9 22.2942 9.09428 22.4827 9.28285C22.6922 9.47143 22.797 9.69143 22.797 9.94286V29.68L22.1999 29.1457H32.9799ZM38.487 9H50.0213C50.2727 9 50.4927 9.09428 50.6813 9.28285C50.8698 9.45047 50.9641 9.67047 50.9641 9.94286C50.9641 10.2152 50.8698 10.4352 50.6813 10.6029C50.4927 10.7705 50.2727 10.8543 50.0213 10.8543H39.2098L39.5241 10.32V19.1514L39.1784 18.7429H48.607C48.8584 18.7429 49.0784 18.8371 49.267 19.0257C49.4556 19.2143 49.5498 19.4343 49.5498 19.6857C49.5498 19.9581 49.4556 20.1781 49.267 20.3457C49.0784 20.5133 48.8584 20.5971 48.607 20.5971H39.2413L39.5241 20.2829V29.3343L39.367 29.1457H50.0213C50.2727 29.1457 50.4927 29.24 50.6813 29.4286C50.8698 29.6171 50.9641 29.8371 50.9641 30.0886C50.9641 30.361 50.8698 30.581 50.6813 30.7486C50.4927 30.9162 50.2727 31 50.0213 31H38.487C38.2356 31 38.0156 30.9057 37.827 30.7171C37.6384 30.5286 37.5441 30.3086 37.5441 30.0571V9.94286C37.5441 9.69143 37.6384 9.47143 37.827 9.28285C38.0156 9.09428 38.2356 9 38.487 9ZM71.3097 8.96857C71.603 8.96857 71.8335 9.05238 72.0011 9.22C72.1897 9.38762 72.284 9.59714 72.284 9.84857C72.284 9.99524 72.2526 10.1524 72.1897 10.32L63.7983 30.3714C63.6935 30.581 63.5573 30.7381 63.3897 30.8429C63.2221 30.9476 63.0545 31 62.8869 31C62.6983 31 62.5202 30.9476 62.3526 30.8429C62.185 30.7381 62.0697 30.5914 62.0069 30.4029L53.6469 10.3829C53.6259 10.32 53.6049 10.2467 53.584 10.1629C53.563 10.079 53.5526 9.98476 53.5526 9.88C53.5526 9.60762 53.6469 9.38762 53.8354 9.22C54.0449 9.05238 54.2545 8.96857 54.464 8.96857C54.904 8.96857 55.2183 9.19905 55.4069 9.66L63.264 28.4543H62.6983L70.4297 9.59714C70.6392 9.17809 70.9326 8.96857 71.3097 8.96857ZM82.5882 11.42L74.951 30.4029C74.8672 30.6124 74.752 30.7695 74.6053 30.8743C74.4586 30.979 74.291 31.0314 74.1024 31.0314C73.8091 31.0314 73.5891 30.9581 73.4424 30.8114C73.2958 30.6438 73.212 30.4448 73.191 30.2143C73.1701 30.1095 73.1805 29.9838 73.2224 29.8371L81.5196 9.53428C81.6243 9.30381 81.7501 9.14666 81.8967 9.06286C82.0643 8.95809 82.2529 8.90571 82.4624 8.90571C82.672 8.90571 82.8501 8.96857 82.9967 9.09428C83.1643 9.19905 83.2901 9.34571 83.3739 9.53428L91.6396 29.7429C91.6815 29.8686 91.7024 29.9943 91.7024 30.12C91.7024 30.4133 91.6082 30.6438 91.4196 30.8114C91.231 30.9581 91.011 31.0314 90.7596 31.0314C90.5501 31.0314 90.3615 30.979 90.1939 30.8743C90.0472 30.7486 89.932 30.5914 89.8482 30.4029L82.0224 11.2943L82.5882 11.42ZM76.7739 24.6514L77.5596 22.7971H87.3024L87.6796 24.6514H76.7739ZM100.554 31C100.261 31 100.02 30.9057 99.8316 30.7171C99.664 30.5286 99.5802 30.3086 99.5802 30.0571V10.0371H101.529V30.0571C101.529 30.3086 101.434 30.5286 101.246 30.7171C101.057 30.9057 100.827 31 100.554 31ZM93.0745 10.7914C92.8231 10.7914 92.6031 10.7076 92.4145 10.54C92.2259 10.3724 92.1316 10.1524 92.1316 9.88C92.1316 9.62857 92.2259 9.41905 92.4145 9.25143C92.6031 9.08381 92.8231 9 93.0745 9H108.034C108.286 9 108.506 9.08381 108.694 9.25143C108.883 9.41905 108.977 9.63905 108.977 9.91143C108.977 10.1838 108.883 10.4038 108.694 10.5714C108.506 10.7181 108.286 10.7914 108.034 10.7914H93.0745ZM113.928 9H125.462C125.714 9 125.934 9.09428 126.122 9.28285C126.311 9.45047 126.405 9.67047 126.405 9.94286C126.405 10.2152 126.311 10.4352 126.122 10.6029C125.934 10.7705 125.714 10.8543 125.462 10.8543H114.651L114.965 10.32V19.1514L114.619 18.7429H124.048C124.299 18.7429 124.519 18.8371 124.708 19.0257C124.896 19.2143 124.991 19.4343 124.991 19.6857C124.991 19.9581 124.896 20.1781 124.708 20.3457C124.519 20.5133 124.299 20.5971 124.048 20.5971H114.682L114.965 20.2829V29.3343L114.808 29.1457H125.462C125.714 29.1457 125.934 29.24 126.122 29.4286C126.311 29.6171 126.405 29.8371 126.405 30.0886C126.405 30.361 126.311 30.581 126.122 30.7486C125.934 30.9162 125.714 31 125.462 31H113.928C113.676 31 113.456 30.9057 113.268 30.7171C113.079 30.5286 112.985 30.3086 112.985 30.0571V9.94286C112.985 9.69143 113.079 9.47143 113.268 9.28285C113.456 9.09428 113.676 9 113.928 9Z" fill="black"/>
</svg>
