<svg width="20" height="34" viewBox="0 0 20 34" fill="none" xmlns="http://www.w3.org/2000/svg">
<path fill-rule="evenodd" clip-rule="evenodd" d="M7.36203 0.280119C3.48959 1.30069 1.05509 4.41326 1.05509 8.34351C1.05509 10.8658 1.98261 13.0072 3.84068 14.7743L4.7278 15.6182L3.4765 16.7622C1.49742 18.5719 0.48151 20.38 0.103105 22.7663C-0.51581 26.6707 1.69923 30.645 5.46887 32.3932C11.4023 35.1447 17.8563 32.0399 19.1834 25.7953C19.5362 24.1352 19.423 22.7301 18.7906 20.92C18.2269 19.3069 17.4762 18.1778 16.0538 16.8036L14.9125 15.701L15.9569 14.6295C17.8479 12.6892 18.7407 10.0112 18.339 7.48518C17.5281 2.38864 12.3236 -1.02743 7.36203 0.280119ZM15.6022 2.66875C16.3559 3.3034 16.3476 4.45762 15.5813 5.53964C15.277 5.96936 13.0152 8.12726 10.5549 10.3351C8.09456 12.5431 5.79872 14.6067 5.45294 14.9213L4.82435 15.4931L4.07778 14.7114C3.10455 13.6923 3.0412 12.6825 3.88071 11.5764C4.71016 10.4838 12.6371 2.85809 13.2892 2.52582C14.1327 2.09572 14.984 2.14844 15.6022 2.66875ZM15.7051 16.8389C16.7774 17.9081 16.9953 18.4198 16.7505 19.2943C16.4491 20.3708 15.5255 21.4125 10.8868 25.9087C6.43527 30.2234 5.43359 30.9928 4.26822 30.9928C3.44388 30.9928 2.38283 29.9554 2.38283 29.1492C2.38283 27.8366 2.83805 27.2979 8.78499 21.5734C11.9926 18.4855 14.6629 15.9588 14.719 15.9582C14.775 15.9575 15.2188 16.354 15.7051 16.8389Z" fill="url(#paint0_linear_35_33)"/>
<defs>
<linearGradient id="paint0_linear_35_33" x1="15.6369" y1="1.83204" x2="3.74508" y2="29.8235" gradientUnits="userSpaceOnUse">
<stop offset="0.135294" stop-color="#70A2E1"/>
<stop offset="0.664206" stop-color="#1C4171"/>
</linearGradient>
</defs>
</svg>
